<svg width="23" height="34" viewBox="0 0 23 34" fill="none" xmlns="http://www.w3.org/2000/svg">
<path d="M11.3824 0C5.10353 0 0 5.10353 0 11.3824C0 17.1664 4.33027 21.9452 9.91322 22.672V26.1981H7.26866C6.46447 26.1981 5.79947 26.8631 5.79947 27.6673C5.79947 28.4715 6.46447 29.1365 7.26866 29.1365H9.91322V32.0904C9.91322 32.8946 10.5782 33.5596 11.3824 33.5596C12.1866 33.5596 12.8516 32.8946 12.8516 32.0904V29.1211H15.4962C16.3004 29.1211 16.9654 28.456 16.9654 27.6519C16.9654 26.8477 16.3004 26.1827 15.4962 26.1827H12.8516V22.6566C18.4346 21.9297 22.7648 17.151 22.7648 11.367C22.7648 5.10353 17.6613 0 11.3824 0ZM11.3824 19.8264C6.72738 19.8264 2.9384 16.0375 2.9384 11.3824C2.9384 6.72738 6.72738 2.9384 11.3824 2.9384C16.0375 2.9384 19.8264 6.72738 19.8264 11.3824C19.8264 16.0375 16.0375 19.8264 11.3824 19.8264Z" fill="white"/>
</svg>
