<svg width="26" height="26" viewBox="0 0 26 26" fill="none" xmlns="http://www.w3.org/2000/svg">
<path d="M12.9993 23.8346C18.9824 23.8346 23.8327 18.9844 23.8327 13.0013C23.8327 7.01822 18.9824 2.16797 12.9993 2.16797C7.01626 2.16797 2.16602 7.01822 2.16602 13.0013C2.16602 18.9844 7.01626 23.8346 12.9993 23.8346Z" stroke="#165ADE" stroke-width="1.5" stroke-linecap="round" stroke-linejoin="round"/>
<path d="M9.84766 9.74964C10.1024 9.02561 10.6051 8.41509 11.2668 8.0262C11.9285 7.63731 12.7065 7.49516 13.4629 7.62491C14.2194 7.75467 14.9055 8.14796 15.3998 8.73513C15.8941 9.3223 16.1646 10.0655 16.1635 10.833C16.1635 12.9996 12.9135 14.083 12.9135 14.083" stroke="#165ADE" stroke-width="1.5" stroke-linecap="round" stroke-linejoin="round"/>
<path d="M13 18.418H13.0108" stroke="#165ADE" stroke-width="1.5" stroke-linecap="round" stroke-linejoin="round"/>
</svg>
