<svg width="38" height="38" viewBox="0 0 38 38" fill="none" xmlns="http://www.w3.org/2000/svg">
<path d="M30.0833 4.75H7.91667C6.16776 4.75 4.75 6.16776 4.75 7.91667V30.0833C4.75 31.8322 6.16776 33.25 7.91667 33.25H30.0833C31.8322 33.25 33.25 31.8322 33.25 30.0833V7.91667C33.25 6.16776 31.8322 4.75 30.0833 4.75Z" stroke="white" stroke-width="2" stroke-linecap="round" stroke-linejoin="round"/>
<path d="M13.459 15.832C14.7707 15.832 15.834 14.7687 15.834 13.457C15.834 12.1454 14.7707 11.082 13.459 11.082C12.1473 11.082 11.084 12.1454 11.084 13.457C11.084 14.7687 12.1473 15.832 13.459 15.832Z" stroke="white" stroke-width="2" stroke-linecap="round" stroke-linejoin="round"/>
<path d="M33.2493 23.7487L25.3327 15.832L7.91602 33.2487" stroke="white" stroke-width="2" stroke-linecap="round" stroke-linejoin="round"/>
</svg>
