<svg width="23" height="35" viewBox="0 0 23 35" fill="none" xmlns="http://www.w3.org/2000/svg">
<path d="M12.8516 11.5332V4.99141L14.4755 6.61526C14.7693 6.9091 15.1405 7.04829 15.5116 7.04829C15.8828 7.04829 16.2694 6.9091 16.5478 6.61526C17.12 6.04304 17.12 5.11513 16.5478 4.54291L12.4341 0.429161C11.8618 -0.143053 10.9339 -0.143053 10.3617 0.429161L6.24796 4.54291C5.67574 5.11513 5.67574 6.04304 6.24796 6.61526C6.5418 6.9091 6.91296 7.04829 7.28413 7.04829C7.6553 7.04829 8.04192 6.9091 8.3203 6.61526L9.91322 5.02234V11.5332C4.33027 12.2601 0 17.0388 0 22.8228C0 29.1017 5.10353 34.2053 11.3824 34.2053C17.6613 34.2053 22.7648 29.1017 22.7648 22.8228C22.7648 17.0388 18.4346 12.2601 12.8516 11.5332ZM11.3824 31.2669C6.72738 31.2669 2.9384 27.4779 2.9384 22.8228C2.9384 18.1678 6.72738 14.3788 11.3824 14.3788C16.0375 14.3788 19.8264 18.1678 19.8264 22.8228C19.8264 27.4779 16.0375 31.2669 11.3824 31.2669Z" fill="white"/>
</svg>
