<svg width="48" height="26" viewBox="0 0 48 26" fill="none" xmlns="http://www.w3.org/2000/svg">
<path d="M24 16.2733C19.5253 16.2733 15.8827 19.916 15.8827 24.3906C15.8827 24.9773 16.3573 25.452 16.944 25.452C17.5307 25.452 18.0053 24.9773 18.0053 24.3906C18.0053 21.084 20.6987 18.3906 24.0054 18.3906C27.312 18.3906 30.0054 21.084 30.0054 24.3906C30.0054 24.9773 30.48 25.452 31.0667 25.452C31.6534 25.452 32.128 24.9773 32.128 24.3906C32.1174 19.9106 28.4747 16.2733 24 16.2733ZM24 10.9773C16.6027 10.9773 10.5867 16.9933 10.5867 24.3906C10.5867 24.9773 11.0613 25.452 11.648 25.452C12.2347 25.452 12.7093 24.9773 12.7093 24.3906C12.7093 18.1613 17.776 13.0946 24.0054 13.0946C30.2347 13.0946 35.3014 18.1613 35.3014 24.3906C35.3014 24.9773 35.776 25.452 36.3627 25.452C36.9494 25.452 37.424 24.9773 37.424 24.3906C37.4134 16.9933 31.3974 10.9773 24 10.9773ZM24 5.6813C13.6853 5.6813 5.296 14.0706 5.296 24.3853C5.296 24.972 5.77067 25.4466 6.35734 25.4466C6.94401 25.4466 7.41867 24.972 7.41867 24.3853C7.41867 15.2386 14.8587 7.79863 24.0054 7.79863C33.152 7.79863 40.592 15.2386 40.592 24.3853C40.592 24.972 41.0667 25.4466 41.6534 25.4466C42.24 25.4466 42.7147 24.972 42.7147 24.3853C42.704 14.076 34.3147 5.6813 24 5.6813ZM24 0.390625C10.768 0.390625 0 11.1586 0 24.3906C0 24.9773 0.474667 25.452 1.06133 25.452C1.648 25.452 2.12267 24.9773 2.12267 24.3906C2.12267 12.3266 11.9413 2.50796 24.0054 2.50796C36.0694 2.50796 45.888 12.3266 45.888 24.3906C45.888 24.9773 46.3627 25.452 46.9494 25.452C47.536 25.452 48 24.972 48 24.3906C48 11.1533 37.232 0.390625 24 0.390625Z" fill="white"/>
</svg>
