<svg width="60" height="60" viewBox="0 0 60 60" fill="none" xmlns="http://www.w3.org/2000/svg">
<path d="M44.5797 26.5584H49.9928L50.523 18.1883L50.5221 18.1633C50.5223 18.1633 50.5224 18.1633 50.5226 18.1633C50.6268 18.1598 50.9365 18.1349 51.2199 17.9396C51.5019 17.7452 51.7618 17.3793 51.7618 16.6851C51.7618 15.9907 51.5061 15.623 51.2285 15.4278C50.9493 15.2315 50.644 15.2068 50.5422 15.2068C50.4016 15.2068 50.2668 15.1515 50.1674 15.0528C50.0679 14.9542 50.012 14.8204 50.012 14.6808C50.012 14.5412 50.0679 14.4073 50.1674 14.3087C50.2668 14.2101 50.4016 14.1547 50.5422 14.1547C50.9358 14.1547 51.5044 14.2879 51.9751 14.6712C52.4467 15.0553 52.818 15.6889 52.818 16.6851C52.818 17.4923 52.5719 18.0611 52.2247 18.4518C51.8834 18.8359 51.446 19.0462 51.0531 19.143V27.0794C51.0531 27.219 50.9972 27.3528 50.8977 27.4515C50.7983 27.5501 50.6635 27.6055 50.523 27.6055H44.6047V27.6105H44.5797C44.4392 27.6105 44.3044 27.5551 44.205 27.4565C44.1055 27.3579 44.0496 27.224 44.0496 27.0844C44.0496 26.9449 44.1055 26.811 44.205 26.7124C44.3044 26.6137 44.4392 26.5584 44.5797 26.5584Z" fill="#969697" stroke="#969697" stroke-width="0.05"/>
<path d="M50.9188 16.6213L50.9188 16.6213L50.9188 13.8608L50.9268 13.6293L50.9188 16.6213ZM50.9188 16.6213C50.9174 19.114 49.9196 21.5044 48.1442 23.2682C46.3688 25.0321 43.9607 26.0254 41.4481 26.0305H41.448C38.9339 26.027 36.5238 25.0343 34.7466 23.2702C32.9693 21.506 31.9701 19.1145 31.9682 16.6203L31.9682 16.6202L31.9743 13.8764V13.8763L31.9743 13.6101C31.9743 13.61 31.9743 13.61 31.9743 13.6099C31.9614 12.3672 32.1969 11.1344 32.6673 9.9826C33.1378 8.83078 33.8337 7.78292 34.715 6.89964C35.5962 6.01635 36.6453 5.31517 37.8014 4.83664C38.9575 4.35811 40.1978 4.11172 41.4506 4.11172C42.7033 4.11172 43.9436 4.35811 45.0997 4.83664C46.2559 5.31517 47.3049 6.01635 48.1861 6.89964C49.0674 7.78292 49.7634 8.83078 50.2338 9.9826C50.7041 11.1341 50.9396 12.3666 50.9268 13.609L50.9188 16.6213ZM49.8685 13.5768L49.8676 13.6009L49.8596 13.8327C49.859 13.8393 49.859 13.8459 49.8595 13.8524V16.6213C49.8595 18.8353 48.9729 20.9586 47.3947 22.5242C45.8165 24.0897 43.676 24.9693 41.444 24.9693C39.212 24.9693 37.0715 24.0897 35.4932 22.5242C33.9151 20.9586 33.0285 18.8353 33.0285 16.6214L49.8685 13.5768ZM49.8685 13.5768H49.8688C49.8768 12.4812 49.6672 11.3947 49.2521 10.3792C48.8338 9.35607 48.2151 8.4254 47.4318 7.64105C46.6484 6.8567 45.7161 6.23425 44.6886 5.80973C43.6611 5.38522 42.559 5.16707 41.446 5.16793C40.3329 5.16879 39.2311 5.38864 38.2043 5.81474C37.1775 6.24084 36.2461 6.86473 35.4641 7.65029C34.682 8.43584 34.0647 9.36747 33.6481 10.3912C33.2314 11.415 33.0235 12.5106 33.0366 13.6145L33.0365 13.6149L33.0285 16.6213L49.8685 13.5768Z" fill="#969697" stroke="#969697" stroke-width="0.05"/>
<path d="M49.7817 13.9374C50.1212 13.9374 50.347 13.9251 50.415 13.9214C50.4246 13.9208 50.4311 13.9205 50.4343 13.9204L50.435 13.9203L50.435 13.9203C50.5046 13.9155 50.5726 13.8971 50.635 13.8662C50.6974 13.8353 50.7531 13.7925 50.7989 13.7403C50.8914 13.6347 50.9378 13.497 50.928 13.3575C50.9181 13.2179 50.8528 13.088 50.7464 12.9962C50.6401 12.9045 50.5014 12.8585 50.3609 12.8683L50.3608 12.8683C50.319 12.8712 48.616 12.9735 46.7383 12.5506C44.8595 12.1275 42.8145 11.1806 42.0749 9.09172L42.0749 9.09169C42.0373 8.98589 41.9666 8.89481 41.8732 8.83174C41.7797 8.76866 41.6685 8.73687 41.5556 8.74098C41.4427 8.74509 41.334 8.78488 41.2455 8.85458C41.157 8.92429 41.0932 9.02027 41.0635 9.12853L41.0626 9.13168L41.0603 9.13901C41.0581 9.14604 41.0545 9.15648 41.0496 9.17011C41.0397 9.19736 41.0242 9.23727 41.0019 9.288C40.9573 9.38945 40.8856 9.53413 40.7775 9.70741C40.5611 10.0539 40.1988 10.5149 39.6154 10.9735M49.7817 13.9374L39.6154 10.9735M49.7817 13.9374C48.6724 13.9386 47.5663 13.8198 46.483 13.5831L46.4828 13.583M49.7817 13.9374L46.4828 13.583M39.6154 10.9735C37.6252 12.5373 34.6485 12.8722 32.4986 12.8722C32.358 12.8722 32.2232 12.9276 32.1238 13.0262C32.0243 13.1249 31.9684 13.2587 31.9684 13.3983C31.9684 13.5379 32.0243 13.6717 32.1238 13.7704C32.2232 13.869 32.358 13.9244 32.4986 13.9244C38.2798 13.9244 40.6417 11.8002 41.5561 10.4623C42.4833 11.9893 44.1657 13.0577 46.4828 13.583M39.6154 10.9735L46.4828 13.583M41.0632 9.12958C41.0633 9.12944 41.0632 9.12955 41.0632 9.1298L41.0632 9.12958ZM50.7301 13.0152C50.6288 12.9278 50.4965 12.8839 50.3626 12.8932L50.4333 13.8954C50.4996 13.8908 50.5644 13.8733 50.6239 13.8438C50.6834 13.8144 50.7365 13.7736 50.7801 13.7238C50.8682 13.6233 50.9124 13.4921 50.9031 13.3592C50.8937 13.2263 50.8315 13.1026 50.7301 13.0152Z" fill="#969697" stroke="#969697" stroke-width="0.05"/>
<path d="M38.0218 27.6096L38.025 27.6054C38.161 27.6022 38.2908 27.5472 38.3872 27.4515C38.4867 27.3528 38.5426 27.219 38.5426 27.0794C38.5426 26.9398 38.4867 26.806 38.3872 26.7074C38.2878 26.6087 38.153 26.5534 38.0125 26.5534L38.0126 26.5534L38.0218 27.6096ZM38.0218 27.6096L38.0092 27.6095L32.3521 27.5674L38.0218 27.6096ZM32.8782 26.5155L38.0125 26.5534L32.8782 26.5403V26.5155ZM32.8782 26.5155V18.6894C32.8782 18.5498 32.8223 18.416 32.7228 18.3173C32.6234 18.2187 32.4886 18.1633 32.3481 18.1633C32.2497 18.1633 31.9451 18.1402 31.6658 17.9446C31.3882 17.7502 31.1315 17.3825 31.1315 16.6851C31.1315 15.9878 31.3916 15.6222 31.6737 15.4287C31.9571 15.2344 32.2667 15.2108 32.3708 15.2068L32.8782 26.5155ZM31.822 27.0413V19.1439L32.3519 27.5674C32.2115 27.5674 32.0767 27.512 31.9773 27.4134C31.8779 27.3148 31.822 27.1809 31.822 27.0413Z" fill="#969697" stroke="#969697" stroke-width="0.05"/>
<path d="M44.5457 27.6356H38.1135C37.973 27.6356 37.8381 27.5802 37.7387 27.4816C37.6393 27.3829 37.5834 27.2491 37.5834 27.1095V25.005C37.5834 24.8654 37.6393 24.7316 37.7387 24.6329C37.8381 24.5343 37.973 24.4789 38.1135 24.4789C38.254 24.4789 38.3888 24.5343 38.4883 24.6329C38.5877 24.7316 38.6436 24.8654 38.6436 25.005V26.5834H44.0155V25.1313C44.0155 24.9917 44.0714 24.8578 44.1709 24.7592C44.2703 24.6606 44.4051 24.6052 44.5457 24.6052C44.6862 24.6052 44.821 24.6606 44.9204 24.7592C45.0199 24.8578 45.0758 24.9917 45.0758 25.1313V27.1095C45.0758 27.2491 45.0199 27.3829 44.9204 27.4816C44.821 27.5802 44.6862 27.6356 44.5457 27.6356Z" fill="#969697" stroke="#969697" stroke-width="0.05"/>
<path d="M44.0321 15.9674L44.0497 15.9497C44.0497 15.9496 44.0496 15.9495 44.0496 15.9495C44.0496 15.9496 44.0497 15.9496 44.0497 15.9497L44.0321 15.9674ZM44.0321 15.9674C44.0341 15.9694 44.3554 16.23 45.0797 16.23C45.6214 16.23 45.8747 16.0528 45.9574 15.9778L44.0321 15.9674ZM45.9982 15.9728C45.9978 15.9732 45.9974 15.9736 45.997 15.9741L46.7975 16.5038C46.7976 16.5037 46.7976 16.5037 46.7977 16.5036L46.8184 16.5176L46.8046 16.5384L46.8039 16.538C46.7068 16.6693 46.2246 17.2321 45.0757 17.2321C43.9079 17.2321 43.3674 16.7331 43.3169 16.6759L45.9982 15.9728ZM45.9982 15.9728L45.9997 15.9736C46.0015 15.9703 46.0036 15.9671 46.0059 15.9641L45.9982 15.9728ZM46.8322 16.4967L46.8532 16.5107L46.8391 16.5316C46.7863 16.6096 46.3126 17.2571 45.0757 17.2571C43.9043 17.2571 43.3568 16.7581 43.2987 16.6931C43.1996 16.5944 43.144 16.4607 43.1441 16.3213C43.1442 16.1816 43.2002 16.0478 43.2998 15.9491C43.3993 15.8505 43.5343 15.7952 43.6749 15.7953C43.8151 15.7954 43.9496 15.8506 44.0489 15.9489L44.0514 15.9508C44.0538 15.9526 44.0575 15.9553 44.0624 15.9588C44.0723 15.9658 44.0873 15.9758 44.1075 15.9878C44.1481 16.0118 44.2098 16.0439 44.294 16.0761C44.4623 16.1404 44.7206 16.205 45.0797 16.205C45.4122 16.205 45.6334 16.1376 45.7719 16.0697C45.8412 16.0358 45.8899 16.0016 45.9217 15.9756C45.9375 15.9625 45.9492 15.9515 45.957 15.9436C45.9609 15.9396 45.9638 15.9363 45.9658 15.934L45.9674 15.9323C45.9682 15.9312 45.969 15.9302 45.9699 15.9292L45.989 15.9445L45.9916 15.9405L46.8322 16.4967Z" fill="#969697" stroke="#969697" stroke-width="0.05"/>
<path d="M36.5556 15.9674L36.5732 15.9497C36.5731 15.9496 36.5731 15.9495 36.573 15.9495C36.5731 15.9496 36.5731 15.9496 36.5732 15.9497L36.5556 15.9674ZM36.5556 15.9674C36.5576 15.9694 36.8788 16.23 37.6032 16.23C38.1448 16.23 38.3982 16.0528 38.4808 15.9778L36.5556 15.9674ZM38.5217 15.9728C38.5213 15.9732 38.5208 15.9736 38.5204 15.9741L39.3209 16.5038C39.321 16.5037 39.321 16.5037 39.3211 16.5036L39.3418 16.5176L39.328 16.5384L39.3273 16.538C39.2302 16.6693 38.748 17.2321 37.5991 17.2321C36.4313 17.2321 35.8908 16.7331 35.8403 16.6759L38.5217 15.9728ZM38.5217 15.9728L38.5231 15.9736C38.525 15.9703 38.527 15.9671 38.5294 15.9641L38.5217 15.9728ZM39.3556 16.4967L39.3767 16.5107L39.3625 16.5316C39.3097 16.6096 38.8361 17.2571 37.5991 17.2571C36.4277 17.2571 35.8803 16.7581 35.8221 16.6931C35.7231 16.5944 35.6674 16.4607 35.6675 16.3213C35.6676 16.1816 35.7237 16.0478 35.8232 15.9491C35.9228 15.8505 36.0577 15.7952 36.1983 15.7953C36.3385 15.7954 36.473 15.8506 36.5724 15.9489L36.5749 15.9508C36.5773 15.9526 36.5809 15.9553 36.5858 15.9588C36.5957 15.9658 36.6107 15.9758 36.631 15.9878C36.6715 16.0118 36.7333 16.0439 36.8174 16.0761C36.9857 16.1404 37.2441 16.205 37.6032 16.205C37.9356 16.205 38.1568 16.1376 38.2953 16.0697C38.3646 16.0358 38.4134 16.0016 38.4451 15.9756C38.461 15.9625 38.4726 15.9515 38.4804 15.9436C38.4843 15.9396 38.4873 15.9363 38.4893 15.934L38.4908 15.9323C38.4916 15.9312 38.4925 15.9302 38.4933 15.9292L38.5125 15.9445L38.5151 15.9405L39.3556 16.4967Z" fill="#969697" stroke="#969697" stroke-width="0.05"/>
<path d="M26.8551 16.6851C26.8551 17.9327 26.2879 18.5672 25.7156 18.8882C25.1678 19.1956 24.6177 19.2144 24.5641 19.2154V19.2155H24.5601V19.2154C24.421 19.2144 24.2878 19.1591 24.1893 19.0614C24.0899 18.9628 24.034 18.829 24.034 18.6894C24.034 18.5498 24.0899 18.416 24.1893 18.3173C24.2888 18.2187 24.4236 18.1633 24.5641 18.1633C24.6268 18.1633 24.936 18.1522 25.2289 17.9625C25.5199 17.774 25.7989 17.4065 25.7989 16.6851C25.7989 15.9907 25.5432 15.623 25.2656 15.4278C24.9865 15.2315 24.6811 15.2068 24.5793 15.2068C24.4387 15.2068 24.3039 15.1515 24.2045 15.0528C24.1051 14.9542 24.0492 14.8204 24.0492 14.6808C24.0492 14.5412 24.1051 14.4073 24.2045 14.3087C24.3039 14.2101 24.4387 14.1547 24.5793 14.1547C24.5922 14.1547 25.1599 14.1621 25.7253 14.482C26.2928 14.8031 26.8551 15.4375 26.8551 16.6851Z" fill="#969697" stroke="#969697" stroke-width="0.05"/>
<path d="M24.9578 16.6213L24.9578 16.6213L24.9578 13.8608L24.9659 13.6293L24.9578 16.6213ZM24.9578 16.6213C24.9565 19.1143 23.9584 21.505 22.1825 23.2689C20.4067 25.0328 17.9981 26.026 15.4851 26.0305H15.485C12.9713 26.0265 10.5617 25.0336 8.78491 23.2695C7.00811 21.5054 6.00916 19.1141 6.00729 16.6203V16.6202L6.01335 13.8764V13.8763V13.6101C6.0004 12.3674 6.23596 11.1344 6.70639 9.9826C7.17683 8.83078 7.8728 7.78292 8.75405 6.89964C9.6353 6.01635 10.6843 5.31517 11.8405 4.83664C12.9966 4.35811 14.2369 4.11172 15.4896 4.11172C16.7424 4.11172 17.9826 4.35811 19.1388 4.83664C20.2949 5.31517 21.344 6.01635 22.2252 6.89964C23.1064 7.78292 23.8024 8.83078 24.2729 9.9826C24.7432 11.1341 24.9787 12.3666 24.9659 13.609L24.9578 16.6213ZM23.9055 13.5768L23.9047 13.6009L23.8966 13.8327C23.896 13.8393 23.896 13.8459 23.8966 13.8524V16.6213C23.8966 18.8353 23.01 20.9586 21.4318 22.5242C19.8536 24.0897 17.713 24.9693 15.481 24.9693C13.249 24.9693 11.1085 24.0897 9.53029 22.5242C7.95211 20.9586 7.06553 18.8353 7.06551 16.6214L23.9055 13.5768ZM23.9055 13.5768H23.9059C23.9138 12.4812 23.7043 11.3947 23.2891 10.3792C22.8708 9.35607 22.2521 8.4254 21.4688 7.64105C20.6855 6.8567 19.7531 6.23425 18.7257 5.80973C17.6982 5.38522 16.596 5.16707 15.483 5.16793C14.37 5.16879 13.2682 5.38864 12.2414 5.81474C11.2146 6.24084 10.2832 6.86473 9.50111 7.65029C8.71903 8.43584 8.10178 9.36747 7.6851 10.3912C7.26842 11.415 7.06058 12.5106 7.07359 13.6145L7.07359 13.6149L7.06551 16.6213L23.9055 13.5768Z" fill="#969697" stroke="#969697" stroke-width="0.05"/>
<path d="M6.76662 19.0614C6.66718 19.1601 6.53237 19.2155 6.39184 19.2155C6.37692 19.2155 5.80816 19.2083 5.24226 18.8885C4.67431 18.5676 4.11199 17.9331 4.11199 16.6851C4.11199 15.4369 4.67921 14.8025 5.25143 14.4816C5.82158 14.1618 6.39409 14.1547 6.40699 14.1547C6.54752 14.1547 6.68234 14.2101 6.78177 14.3087C6.88121 14.4073 6.93711 14.5412 6.93711 14.6808C6.93711 14.8204 6.88121 14.9542 6.78177 15.0528C6.68234 15.1515 6.54752 15.2068 6.40699 15.2068C6.34484 15.2068 6.03559 15.2182 5.74259 15.408C5.45146 15.5966 5.17222 15.9642 5.17222 16.6851C5.17222 17.382 5.42797 17.7497 5.70546 17.9442C5.98458 18.1399 6.28987 18.1633 6.39184 18.1633C6.53237 18.1633 6.66718 18.2187 6.76662 18.3173C6.86605 18.416 6.92196 18.5498 6.92196 18.6894C6.92196 18.829 6.86605 18.9628 6.76662 19.0614Z" fill="#969697" stroke="#969697" stroke-width="0.05"/>
<path d="M18.5828 27.6356H12.1506C12.0101 27.6356 11.8752 27.5802 11.7758 27.4816C11.6764 27.3829 11.6205 27.2491 11.6205 27.1095V25.005C11.6205 24.8654 11.6764 24.7316 11.7758 24.6329C11.8752 24.5343 12.0101 24.4789 12.1506 24.4789C12.2911 24.4789 12.4259 24.5343 12.5254 24.6329C12.6248 24.7316 12.6807 24.8654 12.6807 25.005V26.5834H18.0527V25.1313C18.0527 24.9917 18.1086 24.8578 18.208 24.7592C18.3074 24.6606 18.4422 24.6052 18.5828 24.6052C18.7233 24.6052 18.8581 24.6606 18.9576 24.7592C19.057 24.8578 19.1129 24.9917 19.1129 25.1313V27.1095C19.1129 27.2491 19.057 27.3829 18.9576 27.4816C18.8581 27.5802 18.7233 27.6356 18.5828 27.6356Z" fill="#969697" stroke="#969697" stroke-width="0.05"/>
<path d="M17.3358 16.6931C17.2868 16.6443 17.248 16.5865 17.2215 16.5228C17.1948 16.4589 17.1812 16.3904 17.1812 16.3213C17.1813 16.2521 17.195 16.1837 17.2218 16.1198C17.2485 16.056 17.2876 15.998 17.3369 15.9491C17.3862 15.9003 17.4447 15.8616 17.509 15.8352C17.5734 15.8088 17.6424 15.7953 17.712 15.7953C17.8522 15.7954 17.9867 15.8506 18.086 15.9489L18.0886 15.9508C18.0909 15.9526 18.0946 15.9553 18.0995 15.9588C18.1094 15.9658 18.1244 15.9758 18.1447 15.9878C18.1852 16.0118 18.2469 16.0439 18.3311 16.0761C18.4994 16.1404 18.7578 16.205 19.1169 16.205C19.4493 16.205 19.6705 16.1376 19.809 16.0697C19.8783 16.0358 19.927 16.0016 19.9588 15.9756C19.9746 15.9625 19.9863 15.9515 19.9941 15.9436C19.998 15.9396 20.0009 15.9363 20.003 15.934L20.0045 15.9323C20.0053 15.9312 20.0061 15.9302 20.007 15.9292L20.0261 15.9445L20.0287 15.9405L20.8693 16.4967L20.8903 16.5107L20.8762 16.5316C20.8234 16.6096 20.3498 17.2571 19.1128 17.2571C17.9414 17.2571 17.3939 16.7581 17.3358 16.6931ZM17.3358 16.6931C17.336 16.6933 17.3362 16.6935 17.3364 16.6937L17.354 16.6759M17.3358 16.6931C17.3356 16.6929 17.3354 16.6927 17.3353 16.6925L17.354 16.6759M17.354 16.6759C17.4045 16.7331 17.945 17.2321 19.1128 17.2321C20.2617 17.2321 20.7439 16.6693 20.841 16.538L19.9945 15.9778C19.9119 16.0528 19.6585 16.23 19.1169 16.23C18.3925 16.23 18.0713 15.9694 18.0692 15.9674M17.354 16.6759C17.3071 16.6293 17.2699 16.574 17.2445 16.5132C17.2192 16.4524 17.2062 16.3872 17.2062 16.3213C17.2063 16.2555 17.2194 16.1903 17.2448 16.1295C17.2703 16.0687 17.3075 16.0134 17.3545 15.9669C17.4015 15.9204 17.4572 15.8835 17.5185 15.8583C17.5799 15.8332 17.6456 15.8203 17.712 15.8203C17.846 15.8204 17.9745 15.8733 18.0692 15.9674M18.0692 15.9674L18.0868 15.9497C18.0868 15.9497 18.0868 15.9497 18.0869 15.9497L18.0692 15.9674Z" fill="#969697" stroke="#969697" stroke-width="0.05"/>
<path d="M9.85925 16.6931C9.81029 16.6443 9.77143 16.5865 9.74491 16.5228C9.71828 16.4589 9.7046 16.3904 9.70465 16.3213C9.7047 16.2521 9.71848 16.1837 9.74519 16.1198C9.77191 16.056 9.81104 15.998 9.86034 15.9491C9.90963 15.9003 9.96813 15.8616 10.0325 15.8352C10.0968 15.8088 10.1658 15.7953 10.2354 15.7953C10.3756 15.7954 10.5101 15.8506 10.6095 15.9489L10.612 15.9508C10.6144 15.9526 10.618 15.9553 10.6229 15.9588C10.6328 15.9658 10.6478 15.9758 10.6681 15.9878C10.7087 16.0118 10.7704 16.0439 10.8545 16.0761C11.0228 16.1404 11.2812 16.205 11.6403 16.205C11.9727 16.205 12.1939 16.1376 12.3324 16.0697C12.4017 16.0358 12.4505 16.0016 12.4822 15.9756C12.4981 15.9625 12.5097 15.9515 12.5175 15.9436C12.5214 15.9396 12.5244 15.9363 12.5264 15.934L12.5279 15.9323C12.5287 15.9312 12.5296 15.9302 12.5304 15.9292L12.5496 15.9445L12.5522 15.9405L13.3927 16.4967L13.4138 16.5107L13.3996 16.5316C13.3469 16.6096 12.8732 17.2571 11.6362 17.2571C10.4649 17.2571 9.91739 16.7581 9.85925 16.6931ZM9.85925 16.6931C9.85944 16.6933 9.85962 16.6935 9.8598 16.6937L9.87742 16.6759M9.85925 16.6931C9.85906 16.6929 9.85888 16.6927 9.8587 16.6925L9.87742 16.6759M9.87742 16.6759C9.92794 16.7331 10.4684 17.2321 11.6362 17.2321C12.7851 17.2321 13.2673 16.6693 13.3644 16.538L12.5179 15.9778C12.4353 16.0528 12.1819 16.23 11.6403 16.23C10.9159 16.23 10.5947 15.9694 10.5927 15.9674M9.87742 16.6759C9.83053 16.6293 9.79334 16.574 9.76798 16.5132C9.74263 16.4524 9.7296 16.3872 9.72965 16.3213C9.7297 16.2555 9.74281 16.1903 9.76825 16.1295C9.7937 16.0687 9.83097 16.0134 9.87793 15.9669C9.92489 15.9204 9.98063 15.8835 10.042 15.8583C10.1033 15.8332 10.169 15.8203 10.2354 15.8203C10.3694 15.8204 10.498 15.8733 10.5927 15.9674M10.5927 15.9674L10.6103 15.9497C10.6103 15.9497 10.6103 15.9497 10.6103 15.9497L10.5927 15.9674Z" fill="#969697" stroke="#969697" stroke-width="0.05"/>
<path d="M6.45973 15.5096H6.48473C9.08259 15.5096 10.6247 14.3478 11.4609 13.3723L11.461 13.3722C11.789 12.9883 12.0699 12.5671 12.2978 12.1175C13.5633 13.4644 17.0089 15.99 24.6306 15.2059C24.7018 15.2018 24.7715 15.1836 24.8355 15.1521C24.8996 15.1206 24.9567 15.0765 25.0032 15.0225C25.0498 14.9685 25.0848 14.9057 25.1062 14.8379C25.1276 14.7701 25.135 14.6987 25.1278 14.628C25.1206 14.5572 25.0991 14.4887 25.0645 14.4265C25.0299 14.3643 24.983 14.3097 24.9265 14.2659C24.8701 14.2222 24.8053 14.1903 24.7362 14.1721C24.6672 14.154 24.5952 14.1498 24.5245 14.16C19.8465 14.638 16.8738 13.811 15.0684 12.8607C14.1655 12.3855 13.5542 11.8793 13.1672 11.4894C12.9737 11.2944 12.8363 11.1286 12.7466 11.0102C12.7017 10.951 12.6688 10.9037 12.6468 10.8705C12.6357 10.854 12.6274 10.8409 12.6217 10.8318L12.6151 10.821L12.6133 10.8178L12.6127 10.8169L12.6126 10.8166L12.6125 10.8166L12.6123 10.8162C12.5603 10.725 12.4821 10.6513 12.3877 10.6046C12.2933 10.5578 12.187 10.5401 12.0824 10.5536C11.9777 10.5672 11.8796 10.6114 11.8004 10.6807C11.7212 10.7499 11.6647 10.841 11.638 10.9424M6.45973 15.5096L11.6622 10.9488M6.45973 15.5096V15.505M6.45973 15.5096V15.505M11.638 10.9424C11.638 10.9424 11.638 10.9424 11.638 10.9425L11.6622 10.9488M11.638 10.9424C11.638 10.9424 11.6381 10.9423 11.6381 10.9423L11.6622 10.9488M11.638 10.9424C11.6192 11.0122 11.3699 11.8901 10.6061 12.7504C9.84275 13.6102 8.56459 14.4534 6.48473 14.4534C6.3442 14.4534 6.20939 14.5088 6.10996 14.6074C6.01052 14.7061 5.95461 14.8399 5.95461 14.9795C5.95461 15.1191 6.01052 15.2529 6.10996 15.3516C6.20348 15.4443 6.3283 15.4988 6.45973 15.505M11.6622 10.9488C11.6238 11.0911 10.66 14.4784 6.48473 14.4784C6.35077 14.4784 6.22229 14.5312 6.12756 14.6252C6.03284 14.7192 5.97962 14.8466 5.97962 14.9795C5.97962 15.1124 6.03284 15.2398 6.12756 15.3338C6.22229 15.4278 6.35077 15.4806 6.48473 15.4806H6.45973V15.4846V15.505M6.48473 15.4846C6.49308 15.4846 6.50141 15.4846 6.50973 15.4845V15.4846H6.48473ZM12.2916 12.0743C12.2976 12.0807 12.3037 12.0872 12.3098 12.0937L12.2916 12.0743Z" fill="#969697" stroke="#969697" stroke-width="0.05"/>
<path d="M52.818 42.439C52.818 43.6866 52.2507 44.3211 51.6785 44.6421L50.525 44.9694H50.523V44.9694C50.3832 44.9688 50.2492 44.9135 50.1502 44.8154C50.0508 44.7167 49.9949 44.5829 49.9949 44.4433C49.9949 44.3037 50.0508 44.1699 50.1502 44.0712C50.2496 43.9726 50.3845 43.9172 50.525 43.9172C50.5877 43.9172 50.8969 43.9061 51.1898 43.7164C51.4808 43.5279 51.7598 43.1604 51.7598 42.439C51.7598 41.7446 51.504 41.3769 51.2265 41.1817C50.9473 40.9854 50.642 40.9607 50.5401 40.9607C50.3996 40.9607 50.2648 40.9054 50.1654 40.8067C50.0659 40.7081 50.01 40.5743 50.01 40.4347C50.01 40.2951 50.0659 40.1613 50.1654 40.0626C50.2648 39.964 50.3996 39.9086 50.5401 39.9086C50.5541 39.9086 51.1223 39.916 51.688 40.2359C52.2556 40.557 52.818 41.1914 52.818 42.439ZM50.525 44.9443V44.9444L50.523 44.9444C50.3897 44.9438 50.2621 44.8911 50.1678 44.7976C50.0731 44.7036 50.0199 44.5762 50.0199 44.4433C50.0199 44.3104 50.0731 44.1829 50.1678 44.089C50.2625 43.995 50.391 43.9422 50.525 43.9422C50.6543 43.9422 51.7848 43.8971 51.7848 42.439C51.7848 41.036 50.7493 40.9357 50.5401 40.9357C50.4062 40.9357 50.2777 40.883 50.183 40.789C50.0882 40.695 50.035 40.5676 50.035 40.4347C50.035 40.3018 50.0882 40.1743 50.183 40.0804C50.2777 39.9864 50.4062 39.9336 50.5401 39.9336C50.5644 39.9336 52.793 39.9627 52.793 42.439C52.793 44.8828 50.6039 44.9432 50.525 44.9443Z" fill="#969697" stroke="#969697" stroke-width="0.05"/>
<path d="M33.0371 39.3707V39.3705L33.0301 37.5292C33.0347 37.4303 33.0089 37.3324 32.9561 37.2484C32.9035 37.1647 32.8267 37.0988 32.7357 37.0594C32.6963 37.0356 32.5093 36.9124 32.3311 36.5943C32.1506 36.2723 31.9784 35.7493 31.9784 34.925C31.9784 34.44 32.1472 33.4022 33.4124 32.4815C34.679 31.5597 37.0468 30.7535 41.4496 30.741C44.8666 30.752 47.5389 31.3161 49.1846 32.3725C50.7528 33.3827 50.9198 34.4968 50.9198 34.925C50.9198 36.4948 50.129 37.0751 50.0963 37.0981C50.025 37.1457 49.9669 37.2102 49.9271 37.2857C49.8872 37.3613 49.867 37.4455 49.8682 37.5308M33.0371 39.3707L49.8682 37.531C49.8682 37.531 49.8682 37.5309 49.8682 37.5308M33.0371 39.3707L33.029 42.3771L33.0371 39.3707ZM49.8682 37.5308V39.3571M49.8682 37.5308V39.3571M49.8682 39.3571L49.8601 39.5885C49.8596 39.5951 49.8596 39.6017 49.8601 39.6082V42.3771C49.8601 44.591 48.9735 46.7144 47.3953 48.2799C45.8171 49.8455 43.6766 50.7251 41.4446 50.7251C39.2126 50.7251 37.072 49.8455 35.4938 48.2799C33.9156 46.7144 33.0291 44.5911 33.029 42.3771L49.8682 39.3571ZM41.5779 29.6898L41.5781 29.6898C45.1795 29.7139 47.9309 30.3184 49.7552 31.4897C51.7619 32.7769 51.9801 34.317 51.9801 34.925C51.9801 36.5256 51.3007 37.4086 50.9274 37.7727V39.3646C50.9279 39.3714 50.9279 39.3783 50.9274 39.3851L50.9193 39.6166V42.3771C50.918 44.8698 49.9202 47.2602 48.1447 49.024C46.3693 50.7879 43.9613 51.7812 41.4487 51.7863H41.4486C38.9348 51.7825 36.5251 50.7899 34.7481 49.026C32.9712 47.2621 31.972 44.8709 31.9698 42.3771V42.377L31.9759 39.6332V39.6331V39.3687V39.3686L31.9699 37.806C31.5652 37.4688 30.9171 36.6571 30.9171 34.9261C30.9171 34.1589 31.1866 32.691 32.9831 31.4979C34.7531 30.3183 37.5585 29.7129 41.3202 29.6898H41.3203H41.3206H41.3208H41.321H41.3213H41.3215H41.3218H41.322H41.3223H41.3225H41.3227H41.323H41.3232H41.3235H41.3237H41.324H41.3242H41.3244H41.3247H41.3249H41.3252H41.3254H41.3257H41.3259H41.3261H41.3264H41.3266H41.3269H41.3271H41.3274H41.3276H41.3278H41.3281H41.3283H41.3286H41.3288H41.3291H41.3293H41.3295H41.3298H41.33H41.3303H41.3305H41.3307H41.331H41.3312H41.3315H41.3317H41.332H41.3322H41.3324H41.3327H41.3329H41.3332H41.3334H41.3337H41.3339H41.3341H41.3344H41.3346H41.3349H41.3351H41.3354H41.3356H41.3358H41.3361H41.3363H41.3366H41.3368H41.3371H41.3373H41.3375H41.3378H41.338H41.3383H41.3385H41.3388H41.339H41.3392H41.3395H41.3397H41.34H41.3402H41.3405H41.3407H41.341H41.3412H41.3414H41.3417H41.3419H41.3422H41.3424H41.3427H41.3429H41.3431H41.3434H41.3436H41.3439H41.3441H41.3444H41.3446H41.3448H41.3451H41.3453H41.3456H41.3458H41.3461H41.3463H41.3465H41.3468H41.347H41.3473H41.3475H41.3478H41.348H41.3482H41.3485H41.3487H41.349H41.3492H41.3495H41.3497H41.3499H41.3502H41.3504H41.3507H41.3509H41.3512H41.3514H41.3517H41.3519H41.3521H41.3524H41.3526H41.3529H41.3531H41.3534H41.3536H41.3538H41.3541H41.3543H41.3546H41.3548H41.3551H41.3553H41.3555H41.3558H41.356H41.3563H41.3565H41.3568H41.357H41.3573H41.3575H41.3577H41.358H41.3582H41.3585H41.3587H41.359H41.3592H41.3594H41.3597H41.3599H41.3602H41.3604H41.3607H41.3609H41.3612H41.3614H41.3616H41.3619H41.3621H41.3624H41.3626H41.3629H41.3631H41.3634H41.3636H41.3638H41.3641H41.3643H41.3646H41.3648H41.3651H41.3653H41.3656H41.3658H41.366H41.3663H41.3665H41.3668H41.367H41.3673H41.3675H41.3677H41.368H41.3682H41.3685H41.3687H41.369H41.3692H41.3695H41.3697H41.37H41.3702H41.3704H41.3707H41.3709H41.3712H41.3714H41.3717H41.3719H41.3722H41.3724H41.3726H41.3729H41.3731H41.3734H41.3736H41.3739H41.3741H41.3744H41.3746H41.3748H41.3751H41.3753H41.3756H41.3758H41.3761H41.3763H41.3766H41.3768H41.3771H41.3773H41.3775H41.3778H41.378H41.3783H41.3785H41.3788H41.379H41.3793H41.3795H41.3797H41.38H41.3802H41.3805H41.3807H41.381H41.3812H41.3815H41.3817H41.382H41.3822H41.3824H41.3827H41.3829H41.3832H41.3834H41.3837H41.3839H41.3842H41.3844H41.3847H41.3849H41.3852H41.3854H41.3856H41.3859H41.3861H41.3864H41.3866H41.3869H41.3871H41.3874H41.3876H41.3879H41.3881H41.3884H41.3886H41.3888H41.3891H41.3893H41.3896H41.3898H41.3901H41.3903H41.3906H41.3908H41.3911H41.3913H41.3916H41.3918H41.392H41.3923H41.3925H41.3928H41.393H41.3933H41.3935H41.3938H41.394H41.3943H41.3945H41.3948H41.395H41.3953H41.3955H41.3957H41.396H41.3962H41.3965H41.3967H41.397H41.3972H41.3975H41.3977H41.398H41.3982H41.3985H41.3987H41.399H41.3992H41.3995H41.3997H41.4H41.4002H41.4004H41.4007H41.4009H41.4012H41.4014H41.4017H41.4019H41.4022H41.4024H41.4027H41.4029H41.4032H41.4034H41.4037H41.4039H41.4042H41.4044H41.4047H41.4049H41.4052H41.4054H41.4057H41.4059H41.4061H41.4064H41.4066H41.4069H41.4071H41.4074H41.4076H41.4079H41.4081H41.4084H41.4086H41.4089H41.4091H41.4094H41.4096H41.4099H41.4101H41.4104H41.4106H41.4109H41.4111H41.4114H41.4116H41.4119H41.4121H41.4124H41.4126H41.4129H41.4131H41.4134H41.4136H41.4139H41.4141H41.4144H41.4146H41.4149H41.4151H41.4154H41.4156H41.4159H41.4161H41.4164H41.4166H41.4169H41.4171H41.4174H41.4176H41.4179H41.4181H41.4184H41.4186H41.4189H41.4191H41.4194H41.4196H41.4199H41.4201H41.4204H41.4206H41.4209H41.4211H41.4214H41.4216H41.4219H41.4221H41.4224H41.4226H41.4229H41.4231H41.4234H41.4236H41.4239H41.4241H41.4244H41.4246H41.4249H41.4251H41.4254H41.4256H41.4259H41.4261H41.4264H41.4266H41.4269H41.4271H41.4274H41.4276H41.4279H41.4281H41.4284H41.4286H41.4289H41.4291H41.4294H41.4296H41.4299H41.4301H41.4304H41.4306H41.4309H41.4311H41.4314H41.4317H41.4319H41.4322H41.4324H41.4327H41.4329H41.4332H41.4334H41.4337H41.4339H41.4342H41.4344H41.4347H41.4349H41.4352H41.4354H41.4357H41.4359H41.4362H41.4364H41.4367H41.437H41.4372H41.4375H41.4377H41.438H41.4382H41.4385H41.4387H41.439H41.4392H41.4395H41.4397H41.44H41.4402H41.4405H41.4408H41.441H41.4413H41.4415H41.4418H41.442H41.4423H41.4425H41.4428H41.443H41.4433H41.4435H41.4438H41.444H41.4443H41.4446H41.4448H41.4451H41.4453H41.4456H41.4458H41.4461H41.4463H41.4466H41.4468H41.4471H41.4474H41.4476H41.4479H41.4481H41.4484H41.4486H41.4489H41.4491H41.4494H41.4496H41.4499H41.4502H41.4504H41.4507H41.4509H41.4512H41.4514H41.4517H41.4519H41.4522H41.4525H41.4527H41.453H41.4532H41.4535H41.4537H41.454H41.4542H41.4545H41.4547H41.455H41.4553H41.4555H41.4558H41.456H41.4563H41.4565H41.4568H41.457H41.4573H41.4576H41.4578H41.4581H41.4583H41.4586H41.4588H41.4591H41.4593H41.4596H41.4599H41.4601H41.4604H41.4606H41.4609H41.4611H41.4614H41.4616H41.4619H41.4622H41.4624H41.4627H41.4629H41.4632H41.4634H41.4637H41.464H41.4642H41.4645H41.4647H41.465H41.4652H41.4655H41.4657H41.466H41.4663H41.4665H41.4668H41.467H41.4673H41.4675H41.4678H41.468H41.4683H41.4686H41.4688H41.4691H41.4693H41.4696H41.4698H41.4701H41.4704H41.4706H41.4709H41.4711H41.4714H41.4716H41.4719H41.4721H41.4724H41.4727H41.4729H41.4732H41.4734H41.4737H41.4739H41.4742H41.4745H41.4747H41.475H41.4752H41.4755H41.4757H41.476H41.4763H41.4765H41.4768H41.477H41.4773H41.4775H41.4778H41.478H41.4783H41.4786H41.4788H41.4791H41.4793H41.4796H41.4798H41.4801H41.4804H41.4806H41.4809H41.4811H41.4814H41.4816H41.4819H41.4822H41.4824H41.4827H41.4829H41.4832H41.4834H41.4837H41.484H41.4842H41.4845H41.4847H41.485H41.4852H41.4855H41.4858H41.486H41.4863H41.4865H41.4868H41.487H41.4873H41.4876H41.4878H41.4881H41.4883H41.4886H41.4888H41.4891H41.4894H41.4896H41.4899H41.4901H41.4904H41.4906H41.4909H41.4912H41.4914H41.4917H41.4919H41.4922H41.4924H41.4927H41.493H41.4932H41.4935H41.4937H41.494H41.4942H41.4945H41.4948H41.495H41.4953H41.4955H41.4958H41.496H41.4963H41.4966H41.4968H41.4971H41.4973H41.4976H41.4978H41.4981H41.4984H41.4986H41.4989H41.4991H41.4994H41.4996H41.4999H41.5002H41.5004H41.5007H41.5009H41.5012H41.5014H41.5017H41.502H41.5022H41.5025H41.5027H41.503H41.5032H41.5035H41.5038H41.504H41.5043H41.5045H41.5048H41.505H41.5053H41.5056H41.5058H41.5061H41.5063H41.5066H41.5069H41.5071H41.5074H41.5076H41.5079H41.5081H41.5084H41.5087H41.5089H41.5092H41.5094H41.5097H41.5099H41.5102H41.5105H41.5107H41.511H41.5112H41.5115H41.5117H41.512H41.5123H41.5125H41.5128H41.513H41.5133H41.5135H41.5138H41.5141H41.5143H41.5146H41.5148H41.5151H41.5153H41.5156H41.5159H41.5161H41.5164H41.5166H41.5169H41.5171H41.5174H41.5177H41.5179H41.5182H41.5184H41.5187H41.519H41.5192H41.5195H41.5197H41.52H41.5202H41.5205H41.5208H41.521H41.5213H41.5215H41.5218H41.522H41.5223H41.5226H41.5228H41.5231H41.5233H41.5236H41.5238H41.5241H41.5244H41.5246H41.5249H41.5251H41.5254H41.5256H41.5259H41.5262H41.5264H41.5267H41.5269H41.5272H41.5274H41.5277H41.528H41.5282H41.5285H41.5287H41.529H41.5292H41.5295H41.5298H41.53H41.5303H41.5305H41.5308H41.531H41.5313H41.5316H41.5318H41.5321H41.5323H41.5326H41.5328H41.5331H41.5334H41.5336H41.5339H41.5341H41.5344H41.5346H41.5349H41.5352H41.5354H41.5357H41.5359H41.5362H41.5364H41.5367H41.537H41.5372H41.5375H41.5377H41.538H41.5382H41.5385H41.5388H41.539H41.5393H41.5395H41.5398H41.54H41.5403H41.5406H41.5408H41.5411H41.5413H41.5416H41.5418H41.5421H41.5424H41.5426H41.5429H41.5431H41.5434H41.5436H41.5439H41.5442H41.5444H41.5447H41.5449H41.5452H41.5454H41.5457H41.546H41.5462H41.5465H41.5467H41.547H41.5472H41.5475H41.5478H41.548H41.5483H41.5485H41.5488H41.549H41.5493H41.5495H41.5498H41.5501H41.5503H41.5506H41.5508H41.5511H41.5513H41.5516H41.5519H41.5521H41.5524H41.5526H41.5529H41.5531H41.5534H41.5537H41.5539H41.5542H41.5544H41.5547H41.5549H41.5552H41.5554H41.5557H41.556H41.5562H41.5565H41.5567H41.557H41.5572H41.5575H41.5578H41.558H41.5583H41.5585H41.5588H41.559H41.5593H41.5595H41.5598H41.5601H41.5603H41.5606H41.5608H41.5611H41.5613H41.5616H41.5618H41.5621H41.5624H41.5626H41.5629H41.5631H41.5634H41.5636H41.5639H41.5641H41.5644H41.5647H41.5649H41.5652H41.5654H41.5657H41.5659H41.5662H41.5664H41.5667H41.567H41.5672H41.5675H41.5677H41.568H41.5682H41.5685H41.5687H41.569H41.5693H41.5695H41.5698H41.57H41.5703H41.5705H41.5708H41.571H41.5713H41.5716H41.5718H41.5721H41.5723H41.5726H41.5728H41.5731H41.5733H41.5736H41.5738H41.5741H41.5744H41.5746H41.5749H41.5751H41.5754H41.5756H41.5759H41.5761H41.5764H41.5767H41.5769H41.5772H41.5774H41.5777L41.5779 29.6898Z" fill="#969697" stroke="#969697" stroke-width="0.05"/>
<path d="M32.7315 44.8154C32.632 44.914 32.4972 44.9694 32.3567 44.9694C32.3418 44.9694 31.773 44.9622 31.2071 44.6424C30.6392 44.3215 30.0768 43.687 30.0768 42.439C30.0768 41.1908 30.6441 40.5564 31.2163 40.2355C31.7864 39.9158 32.3589 39.9086 32.3718 39.9086C32.5124 39.9086 32.6472 39.964 32.7466 40.0626C32.8461 40.1613 32.902 40.2951 32.902 40.4347C32.902 40.5743 32.8461 40.7081 32.7466 40.8067C32.6472 40.9054 32.5124 40.9607 32.3718 40.9607C32.3097 40.9607 32.0004 40.9721 31.7074 41.1619C31.4163 41.3506 31.1371 41.7181 31.1371 42.439C31.1371 43.1359 31.3928 43.5036 31.6703 43.6981C31.9494 43.8938 32.2547 43.9172 32.3567 43.9172C32.4972 43.9172 32.632 43.9726 32.7315 44.0712C32.8309 44.1699 32.8868 44.3037 32.8868 44.4433C32.8868 44.5829 32.8309 44.7167 32.7315 44.8154Z" fill="#969697" stroke="#969697" stroke-width="0.05"/>
<path d="M44.5457 53.3895H38.1135C37.973 53.3895 37.8381 53.3341 37.7387 53.2355C37.6393 53.1368 37.5834 53.003 37.5834 52.8634V50.7589C37.5834 50.6193 37.6393 50.4855 37.7387 50.3868C37.8381 50.2882 37.973 50.2328 38.1135 50.2328C38.254 50.2328 38.3888 50.2882 38.4883 50.3868C38.5877 50.4855 38.6436 50.6193 38.6436 50.7589V52.3373H44.0155V50.8852C44.0155 50.7456 44.0714 50.6117 44.1709 50.5131C44.2703 50.4145 44.4051 50.3591 44.5457 50.3591C44.6862 50.3591 44.821 50.4145 44.9204 50.5131C45.0199 50.6117 45.0758 50.7456 45.0758 50.8852V52.8634C45.0758 53.003 45.0199 53.1368 44.9204 53.2355C44.821 53.3341 44.6862 53.3895 44.5457 53.3895Z" fill="#969697" stroke="#969697" stroke-width="0.05"/>
<path d="M46.8322 42.2506L46.8532 42.2646L46.8391 42.2855C46.7863 42.3635 46.3126 43.011 45.0757 43.011C43.9043 43.011 43.3568 42.512 43.2987 42.447C43.1996 42.3483 43.144 42.2146 43.1441 42.0752C43.1442 41.9355 43.2002 41.8017 43.2998 41.7031C43.3993 41.6044 43.5343 41.5491 43.6749 41.5492C43.8151 41.5493 43.9496 41.6045 44.0489 41.7028L44.0514 41.7047C44.0538 41.7065 44.0575 41.7093 44.0624 41.7127C44.0723 41.7197 44.0873 41.7297 44.1075 41.7417C44.1481 41.7657 44.2098 41.7978 44.294 41.83C44.4623 41.8943 44.7206 41.9589 45.0797 41.9589C45.4122 41.9589 45.6334 41.8915 45.7719 41.8236C45.8412 41.7897 45.8899 41.7556 45.9217 41.7295C45.9375 41.7165 45.9492 41.7054 45.957 41.6975C45.9609 41.6935 45.9638 41.6903 45.9658 41.6879L45.9674 41.6862C45.9682 41.6851 45.969 41.6841 45.9699 41.6831L45.989 41.6984L45.9916 41.6945L46.8322 42.2506Z" fill="#969697" stroke="#969697" stroke-width="0.05"/>
<path d="M39.3556 42.2506L39.3767 42.2646L39.3625 42.2855C39.3097 42.3635 38.8361 43.011 37.5991 43.011C36.4277 43.011 35.8803 42.512 35.8221 42.447C35.7231 42.3483 35.6674 42.2146 35.6675 42.0752C35.6676 41.9355 35.7237 41.8017 35.8232 41.7031C35.9228 41.6044 36.0577 41.5491 36.1983 41.5492C36.3385 41.5493 36.473 41.6045 36.5724 41.7028L36.5749 41.7047C36.5773 41.7065 36.5809 41.7093 36.5858 41.7127C36.5957 41.7197 36.6107 41.7297 36.631 41.7417C36.6715 41.7657 36.7333 41.7978 36.8174 41.83C36.9857 41.8943 37.2441 41.9589 37.6032 41.9589C37.9356 41.9589 38.1568 41.8915 38.2953 41.8236C38.3646 41.7897 38.4134 41.7556 38.4451 41.7295C38.461 41.7165 38.4726 41.7054 38.4804 41.6975C38.4843 41.6935 38.4873 41.6903 38.4893 41.6879L38.4908 41.6862C38.4916 41.6851 38.4925 41.6841 38.4933 41.6831L38.5125 41.6984L38.5151 41.6945L39.3556 42.2506Z" fill="#969697" stroke="#969697" stroke-width="0.05"/>
<path d="M26.8551 42.439C26.8551 43.6866 26.2879 44.3211 25.7156 44.6421C25.1678 44.9495 24.6177 44.9683 24.5641 44.9693V44.9694H24.5601V44.9694C24.421 44.9683 24.2878 44.913 24.1893 44.8154C24.0899 44.7167 24.034 44.5829 24.034 44.4433C24.034 44.3037 24.0899 44.1699 24.1893 44.0712C24.2888 43.9726 24.4236 43.9172 24.5641 43.9172C24.6268 43.9172 24.936 43.9061 25.2289 43.7164C25.5199 43.5279 25.7989 43.1604 25.7989 42.439C25.7989 41.7446 25.5432 41.3769 25.2656 41.1817C24.9865 40.9854 24.6811 40.9607 24.5793 40.9607C24.4387 40.9607 24.3039 40.9054 24.2045 40.8067C24.1051 40.7081 24.0492 40.5743 24.0492 40.4347C24.0492 40.2951 24.1051 40.1613 24.2045 40.0626C24.3039 39.964 24.4387 39.9086 24.5793 39.9086C24.5922 39.9086 25.1599 39.916 25.7253 40.2359C26.2928 40.557 26.8551 41.1914 26.8551 42.439Z" fill="#969697" stroke="#969697" stroke-width="0.05"/>
<path d="M23.9039 39.3837H23.9038V39.3587L23.9038 38.0098L23.9038 38.0091C23.9067 37.897 23.904 37.7848 23.8958 37.6729C22.1811 36.7975 20.1962 36.8261 18.6309 37.0775C17.066 37.3289 15.9241 37.8025 15.898 37.8133C15.898 37.8133 15.898 37.8134 15.8979 37.8134L15.8979 37.8134L15.8883 37.7903M23.9039 39.3837L7.49335 36.7975C7.4992 36.8064 7.50509 36.8153 7.51101 36.8241C7.51427 36.814 7.51755 36.8039 7.52086 36.7938C8.08452 37.6448 8.93913 38.2658 9.9279 38.5419C12.0575 39.1292 14.3457 38.4577 15.8883 37.7903M23.9039 39.3837L23.8967 39.5896C23.8962 39.5962 23.8962 39.6028 23.8967 39.6093V42.3782C23.8967 44.5921 23.0101 46.7155 21.4319 48.281C19.8537 49.8466 17.7132 50.7262 15.4812 50.7262C13.2492 50.7262 11.1086 49.8466 9.53042 48.281C7.95224 46.7155 7.06566 44.5922 7.06564 42.3782L23.9039 39.3837ZM15.8883 37.7903L15.8883 37.7903C15.935 37.7709 20.472 35.8869 23.9197 37.657L15.8883 37.7903ZM20.4453 35.8712C21.5532 35.8579 22.6539 36.0482 23.6917 36.4323C23.533 35.8198 23.2872 35.2326 22.9618 34.6885C21.625 32.4675 19.102 31.2419 15.4566 31.0417C14.3192 30.9846 12.7577 31.0138 11.3443 31.409C9.93073 31.8042 8.6697 32.564 8.12469 33.9651L8.12464 33.9653C7.99717 34.2877 7.94094 34.6334 7.95974 34.9792C7.97854 35.325 8.07193 35.6628 8.23362 35.9698L8.23365 35.9698C8.43479 36.3535 8.71334 36.692 9.05201 36.9643C9.39067 37.2366 9.7822 37.4369 10.2022 37.5527C11.6344 37.9466 13.5053 37.6989 15.4753 36.8474L15.4753 36.8474L15.476 36.8471C16.4654 36.4574 17.4961 36.1805 18.5485 36.0219C19.1759 35.9235 19.8101 35.8731 20.4453 35.8712ZM20.4453 35.8712C20.4452 35.8712 20.4452 35.8712 20.4452 35.8712L20.4455 35.8962L20.4454 35.8712C20.4454 35.8712 20.4453 35.8712 20.4453 35.8712ZM24.9579 42.3782L24.9579 42.3782C24.9566 44.8712 23.9585 47.2619 22.1826 49.0258C20.4068 50.7897 17.9982 51.7828 15.4853 51.7874H15.4852C12.9712 51.7834 10.5615 50.7903 8.78469 49.026C7.00785 47.2617 6.00903 44.8702 6.00742 42.3762V42.3761L6.01348 39.6323V39.6322V39.3607H6.01336L6.01361 39.3582C6.01398 39.3545 6.01398 39.3508 6.01361 39.3471L6.01337 39.3472L6.0135 39.3437C6.01555 39.2919 6.04466 38.6652 6.17686 37.879C6.30843 37.0965 6.54258 36.153 6.95574 35.4616C6.84017 34.8315 6.90308 34.182 7.13756 33.5852C7.80509 31.8693 9.26337 30.9387 10.8707 30.4533C12.4778 29.9679 14.2371 29.9264 15.5137 29.9906L15.5138 29.9906C20.5457 30.2626 22.8538 32.4256 23.9028 34.1958C24.5961 35.3614 24.9632 36.6894 24.966 38.0428V38.0429V39.3657C24.9665 39.3725 24.9665 39.3794 24.966 39.3862L24.9579 39.6177L24.9579 42.3782Z" fill="#969697" stroke="#969697" stroke-width="0.05"/>
<path d="M6.76662 44.8154C6.66718 44.914 6.53237 44.9694 6.39184 44.9694C6.37692 44.9694 5.80816 44.9622 5.24226 44.6424C4.67431 44.3215 4.11199 43.687 4.11199 42.439C4.11199 41.1908 4.67921 40.5564 5.25143 40.2355C5.82158 39.9158 6.39409 39.9086 6.40699 39.9086C6.54752 39.9086 6.68234 39.964 6.78177 40.0626C6.88121 40.1613 6.93711 40.2951 6.93711 40.4347C6.93711 40.5743 6.88121 40.7081 6.78177 40.8067C6.68234 40.9054 6.54752 40.9607 6.40699 40.9607C6.34484 40.9607 6.03559 40.9721 5.74259 41.1619C5.45146 41.3506 5.17222 41.7181 5.17222 42.439C5.17222 43.1359 5.42797 43.5036 5.70546 43.6981C5.98458 43.8938 6.28987 43.9172 6.39184 43.9172C6.53237 43.9172 6.66718 43.9726 6.76662 44.0712C6.86605 44.1699 6.92196 44.3037 6.92196 44.4433C6.92196 44.5829 6.86605 44.7167 6.76662 44.8154Z" fill="#969697" stroke="#969697" stroke-width="0.05"/>
<path d="M18.5828 53.3895H12.1506C12.0101 53.3895 11.8752 53.3341 11.7758 53.2355C11.6764 53.1368 11.6205 53.003 11.6205 52.8634V50.7589C11.6205 50.6193 11.6764 50.4855 11.7758 50.3868C11.8752 50.2882 12.0101 50.2328 12.1506 50.2328C12.2911 50.2328 12.4259 50.2882 12.5254 50.3868C12.6248 50.4855 12.6807 50.6193 12.6807 50.7589V52.3373H18.0527V50.8852C18.0527 50.7456 18.1086 50.6117 18.208 50.5131C18.3074 50.4145 18.4422 50.3591 18.5828 50.3591C18.7233 50.3591 18.8581 50.4145 18.9576 50.5131C19.057 50.6117 19.1129 50.7456 19.1129 50.8852V52.8634C19.1129 53.003 19.057 53.1368 18.9576 53.2355C18.8581 53.3341 18.7233 53.3895 18.5828 53.3895Z" fill="#969697" stroke="#969697" stroke-width="0.05"/>
<path d="M17.3358 42.447C17.2367 42.3483 17.1811 42.2146 17.1812 42.0752C17.1813 41.9355 17.2373 41.8017 17.3369 41.7031C17.4365 41.6044 17.5714 41.5491 17.712 41.5492C17.8522 41.5493 17.9867 41.6045 18.086 41.7028L18.0886 41.7047C18.0909 41.7065 18.0946 41.7093 18.0995 41.7127C18.1094 41.7197 18.1244 41.7297 18.1447 41.7417C18.1852 41.7657 18.2469 41.7978 18.3311 41.83C18.4994 41.8943 18.7578 41.9589 19.1169 41.9589C19.4493 41.9589 19.6705 41.8915 19.809 41.8236C19.8783 41.7897 19.927 41.7556 19.9588 41.7295C19.9746 41.7165 19.9863 41.7054 19.9941 41.6975C19.998 41.6935 20.0009 41.6903 20.003 41.6879L20.0045 41.6862C20.0053 41.6851 20.0061 41.6841 20.007 41.6831L20.0261 41.6984L20.0287 41.6945L20.8693 42.2506L20.8903 42.2646L20.8762 42.2855C20.8234 42.3635 20.3498 43.011 19.1128 43.011C17.9414 43.011 17.3939 42.512 17.3358 42.447ZM17.3358 42.447C17.336 42.4472 17.3362 42.4474 17.3364 42.4476L17.354 42.4298M17.3358 42.447C17.3356 42.4468 17.3354 42.4466 17.3353 42.4464L17.354 42.4298M17.354 42.4298C17.4045 42.487 17.945 42.986 19.1128 42.986C20.2617 42.986 20.7439 42.4232 20.841 42.2919L19.9945 41.7317C19.9119 41.8067 19.6585 41.9839 19.1169 41.9839C18.3925 41.9839 18.0713 41.7233 18.0692 41.7213M17.354 42.4298C17.2593 42.3357 17.2061 42.2082 17.2062 42.0752C17.2063 41.9423 17.2596 41.8148 17.3545 41.7208C17.4493 41.6269 17.5779 41.5741 17.712 41.5742C17.846 41.5743 17.9745 41.6272 18.0692 41.7213M18.0692 41.7213L18.0868 41.7036C18.0868 41.7036 18.0868 41.7036 18.0869 41.7036L18.0692 41.7213Z" fill="#969697" stroke="#969697" stroke-width="0.05"/>
<path d="M9.85925 42.447C9.76018 42.3483 9.70455 42.2146 9.70465 42.0752C9.70475 41.9355 9.76077 41.8017 9.86034 41.7031C9.95989 41.6044 10.0948 41.5491 10.2354 41.5492C10.3756 41.5493 10.5101 41.6045 10.6095 41.7028L10.612 41.7047C10.6144 41.7065 10.618 41.7093 10.6229 41.7127C10.6328 41.7197 10.6478 41.7297 10.6681 41.7417C10.7087 41.7657 10.7704 41.7978 10.8545 41.83C11.0228 41.8943 11.2812 41.9589 11.6403 41.9589C11.9727 41.9589 12.1939 41.8915 12.3324 41.8236C12.4017 41.7897 12.4505 41.7556 12.4822 41.7295C12.4981 41.7165 12.5097 41.7054 12.5175 41.6975C12.5214 41.6935 12.5244 41.6903 12.5264 41.6879L12.5279 41.6862C12.5287 41.6851 12.5296 41.6841 12.5304 41.6831L12.5496 41.6984L12.5522 41.6945L13.3927 42.2506L13.4138 42.2646L13.3996 42.2855C13.3469 42.3635 12.8732 43.011 11.6362 43.011C10.4649 43.011 9.91739 42.512 9.85925 42.447ZM9.85925 42.447C9.85944 42.4472 9.85962 42.4474 9.8598 42.4476L9.87742 42.4298M9.85925 42.447C9.85906 42.4468 9.85888 42.4466 9.8587 42.4464L9.87742 42.4298M9.87742 42.4298C9.92794 42.487 10.4684 42.986 11.6362 42.986C12.7851 42.986 13.2673 42.4232 13.3644 42.2919L12.5179 41.7317C12.4353 41.8067 12.1819 41.9839 11.6403 41.9839C10.9159 41.9839 10.5947 41.7233 10.5927 41.7213M9.87742 42.4298C9.78271 42.3357 9.72956 42.2082 9.72965 42.0752C9.72974 41.9423 9.78308 41.8148 9.87793 41.7208C9.97278 41.6269 10.1014 41.5741 10.2354 41.5742C10.3694 41.5743 10.498 41.6272 10.5927 41.7213M10.5927 41.7213L10.6103 41.7036C10.6103 41.7036 10.6103 41.7036 10.6103 41.7036L10.5927 41.7213Z" fill="#969697" stroke="#969697" stroke-width="0.05"/>
<path d="M34.6799 40.4606C34.7524 40.4608 34.8241 40.4462 34.8906 40.4177C34.9571 40.3893 35.0171 40.3476 35.0668 40.2953C35.1165 40.2429 35.1549 40.181 35.1795 40.1133C35.2041 40.0459 35.2145 39.9742 35.2101 39.9026M34.6799 40.4606L35.7818 38.7474M34.6799 40.4606H32.4978C32.3573 40.4606 32.2225 40.4052 32.1231 40.3066C32.0236 40.208 31.9677 40.0741 31.9677 39.9345C31.9677 39.7949 32.0236 39.6611 32.1231 39.5625C32.2225 39.4638 32.3573 39.4085 32.4978 39.4085H34.214C34.3449 38.9003 34.608 38.435 34.9772 38.0592C36.1474 36.8238 38.3265 36.2016 41.4485 36.2016C44.5705 36.2016 46.7337 36.8248 47.8697 38.0615C48.2277 38.4387 48.4779 38.9037 48.5947 39.4085H50.3386C50.4792 39.4085 50.614 39.4638 50.7134 39.5625C50.8128 39.6611 50.8688 39.7949 50.8688 39.9345C50.8688 40.0741 50.8128 40.208 50.7134 40.3066C50.614 40.4052 50.4792 40.4606 50.3386 40.4606L48.1162 40.4606M34.6799 40.4606L48.1162 40.4606M35.2101 39.9026C35.2101 39.9024 35.21 39.9021 35.21 39.9019L35.1851 39.9035H35.2101L35.2101 39.9029C35.2101 39.9028 35.2101 39.9027 35.2101 39.9026ZM35.2101 39.9026C35.2099 39.8759 35.2086 39.3326 35.7818 38.7474M35.7818 38.7474C36.4459 38.0698 37.9695 37.2517 41.4496 37.2517C44.9297 37.2517 46.4176 38.0638 47.0584 38.7381M35.7818 38.7474L47.0584 38.7381M47.0584 38.7381L47.0766 38.7209M47.0584 38.7381L35.1851 39.9028C35.1849 39.8763 35.1823 39.3237 35.7639 38.7299C36.4347 38.0455 37.9663 37.2267 41.4496 37.2267C44.9329 37.2267 46.429 38.0395 47.0766 38.7209M47.0584 38.7381C47.0584 38.7381 47.0584 38.7381 47.0585 38.7381L47.0766 38.7209M47.0584 38.7381C47.6115 39.3211 47.5903 39.8628 47.5891 39.8917M47.0766 38.7209C47.6395 39.3144 47.6152 39.867 47.614 39.8932L47.614 39.8934M47.614 39.8934L47.5891 39.8909C47.5891 39.8912 47.5891 39.8914 47.5891 39.8917M47.614 39.8934C47.6071 39.9624 47.615 40.032 47.6373 40.0977C47.6596 40.1633 47.6958 40.2235 47.7433 40.2743M47.614 39.8934L47.589 39.8924L47.5891 39.8921C47.5891 39.8919 47.5891 39.8918 47.5891 39.8917M47.5891 39.8917C47.5819 39.9639 47.5903 40.0369 47.6137 40.1057C47.6371 40.1748 47.6751 40.238 47.7251 40.2914L47.7433 40.2743M47.7433 40.2743L47.725 40.2913C47.7749 40.3449 47.8354 40.3876 47.9027 40.4167C47.97 40.4459 48.0427 40.4608 48.1161 40.4606C48.1161 40.4606 48.1162 40.4606 48.1162 40.4606M47.7433 40.2743L48.1162 40.4606" fill="#969697" stroke="#969697" stroke-width="0.05"/>
</svg>
