<svg width="38" height="38" viewBox="0 0 38 38" fill="none" xmlns="http://www.w3.org/2000/svg">
<path d="M25.3327 25.3333L18.9993 19L12.666 25.3333" stroke="white" stroke-width="2" stroke-linecap="round" stroke-linejoin="round"/>
<path d="M19 19V33.25" stroke="white" stroke-width="2" stroke-linecap="round" stroke-linejoin="round"/>
<path d="M32.2835 29.1175C33.8278 28.2756 35.0477 26.9434 35.7508 25.3312C36.4539 23.7189 36.6 21.9185 36.1662 20.2139C35.7323 18.5094 34.7432 16.9979 33.3549 15.918C31.9666 14.838 30.2582 14.2512 28.4993 14.25H26.5043C26.0251 12.3963 25.1318 10.6754 23.8917 9.21659C22.6517 7.7578 21.097 6.59911 19.3446 5.82764C17.5923 5.05618 15.6879 4.692 13.7745 4.7625C11.8612 4.83299 9.98868 5.33632 8.29786 6.23465C6.60703 7.13298 5.14185 8.40293 4.01248 9.94902C2.8831 11.4951 2.11892 13.2771 1.77738 15.1611C1.43584 17.045 1.52583 18.9819 2.04058 20.826C2.55534 22.6702 3.48146 24.3736 4.74933 25.8083" stroke="white" stroke-width="2" stroke-linecap="round" stroke-linejoin="round"/>
<path d="M25.3327 25.3333L18.9993 19L12.666 25.3333" stroke="white" stroke-width="2" stroke-linecap="round" stroke-linejoin="round"/>
</svg>
