<svg width="24" height="24" viewBox="0 0 24 24" fill="none" xmlns="http://www.w3.org/2000/svg">
<path d="M22 11.0818V12.0018C21.9988 14.1582 21.3005 16.2565 20.0093 17.9836C18.7182 19.7108 16.9033 20.9743 14.8354 21.5857C12.7674 22.1971 10.5573 22.1237 8.53447 21.3764C6.51168 20.6291 4.78465 19.2479 3.61096 17.4389C2.43727 15.6299 1.87979 13.4899 2.02168 11.3381C2.16356 9.18638 2.99721 7.13814 4.39828 5.49889C5.79935 3.85964 7.69279 2.7172 9.79619 2.24196C11.8996 1.76673 14.1003 1.98415 16.07 2.86182" stroke="url(#paint0_linear_355_1640)" stroke-width="1.5" stroke-linecap="round" stroke-linejoin="round"/>
<path d="M22 4L12 14.01L9 11.01" stroke="url(#paint1_linear_355_1640)" stroke-width="2" stroke-linecap="round" stroke-linejoin="round"/>
<defs>
<linearGradient id="paint0_linear_355_1640" x1="2.73748" y1="11.9991" x2="21.6562" y2="11.6758" gradientUnits="userSpaceOnUse">
<stop offset="0.063499" stop-color="#00A3FF"/>
<stop offset="0.53757" stop-color="#165ADE"/>
<stop offset="1" stop-color="#0E21A0"/>
</linearGradient>
<linearGradient id="paint1_linear_355_1640" x1="9.47936" y1="9.00651" x2="21.7741" y2="8.73361" gradientUnits="userSpaceOnUse">
<stop offset="0.063499" stop-color="#00A3FF"/>
<stop offset="0.53757" stop-color="#165ADE"/>
<stop offset="1" stop-color="#0E21A0"/>
</linearGradient>
</defs>
</svg>
